inDegrees=yes
name=ik_lifting_orientations
DataType=double
version=3
OpenSimVersion=4.5-2024-01-10-34fd6af
endheader
time	pelvis_tilt	pelvis_list	pelvis_rotation	pelvis_tx	pelvis_ty	pelvis_tz	hip_flexion_r	hip_adduction_r	hip_rotation_r	knee_angle_r	knee_angle_r_beta	ankle_angle_r	subtalar_angle_r	mtp_angle_r	hip_flexion_l	hip_adduction_l	hip_rotation_l	knee_angle_l	knee_angle_l_beta	ankle_angle_l	subtalar_angle_l	mtp_angle_l	lumbar_extension	lumbar_bending	lumbar_rotation	arm_flex_r	arm_add_r	arm_rot_r	elbow_flex_r	pro_sup_r	wrist_flex_r	wrist_dev_r	arm_flex_l	arm_add_l	arm_rot_l	elbow_flex_l	pro_sup_l	wrist_flex_l	wrist_dev_l
2.55	-0.1080598774950354	0.1205634012423704	-94.22243592526512	0	0.9399999998497812	0	43.65984909357712	-10.01161312903641	0	59.4157654125711	1.037000734041933	-4.998732756299282	0	0	43.65984909357712	-10.01161312903641	0	59.4157654125711	1.037000734041933	-4.998732756299282	0	0	1.731622342869773	-0.3949864161818827	0.3646226281042715	4.7513453541544	-1.504272675478411	-0.9527081426791728	2.514362322809319	45.00357264837226	0	0	0	-12.15949549198912	0	75.50479587283812	45.00357264837226	0	0
2.56	-0.103650335751894	0.1086297980851264	-94.22135623429395	0	0.9399999998497812	0	43.66020754061665	-10.01160226255806	0	59.41588791535602	1.037002872118872	-4.998734303365293	0	0	43.66020754061665	-10.01160226255806	0	59.41588791535602	1.037002872118872	-4.998734303365293	0	0	1.709130806320606	-0.404644401472541	0.3628082974225247	4.858689935206725	-0.9077372678020933	-0.9879588343007105	2.300628845941309	45.00357000496347	0	0	0	-12.15988424706485	0	75.50466094064291	45.00357000496347	0	0
2.57	-0.1027019650998005	0.1061345088030406	-94.21939267522552	0	0.9399999998497812	0	43.66139659249014	-10.01156642682379	0	59.41629487083436	1.037009974831878	-4.998739394414353	0	0	43.66139659249014	-10.01156642682379	0	59.41629487083436	1.037009974831878	-4.998739394414353	0	0	0.2998868703031642	-1.485973514199514	-0.554197831094782	6.254857628539958	0.2512223578319786	-0.2043829558768563	2.314087668940875	45.00356127377709	0	0	0	-12.16117557949255	0	75.50421333855137	45.00356127377709	0	0
2.58	-0.1032221355787374	0.108970328001034	-94.21904991352399	0	0.9399999998497812	0	43.68582589128567	-10.0109109685459	0	59.42471729377787	1.037156973843238	-4.998828396572883	0	0	43.68582589128567	-10.0109109685459	0	59.42471729377787	1.037156973843238	-4.998828396572883	0	0	0.3147183743753538	-1.472621021581222	-0.5393066373929657	6.243871590646321	0.2345106031177769	-0.2129922888875989	2.322483882189158	45.00339628205794	0	0	0	-12.18833633326395	0	75.49501687750612	45.00339628205794	0	0
2.59	0.455046920756901	0.6664333567317233	-94.98737746195688	0	0.9399999998497812	0	43.68620087148263	-10.01090017849851	0	59.42484692831798	1.037159236392788	-4.998829905399043	0	0	43.68620087148263	-10.01090017849851	0	59.42484692831798	1.037159236392788	-4.998829905399043	0	0	0.9245576305879099	-1.979463308665172	0.225399273861665	6.396821292305443	-0.2960891156927592	-0.1955409519009395	2.01379742350507	45.00339362178413	0	0	0	-12.18874901107662	0	75.49487571892939	45.00339362178413	0	0
2.6	0.8030341750878008	1.412551830779122	-94.38106636533071	0	0.9399999998497812	0	43.68662465481162	-10.01088811711868	0	59.42499463726023	1.037161814400164	-4.99883158813741	0	0	43.68662465481162	-10.01088811711868	0	59.42499463726023	1.037161814400164	-4.99883158813741	0	0	2.381789632823307	-2.286840073444365	-0.2215927916550287	5.644090445808456	-0.5969696694753475	-0.3043731576051222	2.111985607687886	45.00339064203538	0	0	0	-12.18921818478664	0	75.49471618800222	45.00339064203538	0	0
2.61	2.124333171511999	1.600253930125005	-94.63589800870331	0	0.9399999998497812	0	43.68731258749628	-10.01086872664302	0	59.42523503927644	1.037166010206876	-4.998834284139768	0	0	43.68731258749628	-10.01086872664302	0	59.42523503927644	1.037166010206876	-4.998834284139768	0	0	3.569052978441189	-3.368920642826054	0.127079063972808	4.725706130454281	-1.113988287462883	-0.2911224772448677	1.964963591573862	45.00338583940279	0	0	0	-12.18998151741667	0	75.49445721883706	45.00338583940279	0	0
2.62	2.118852657520816	1.606831713450694	-94.65072433863837	0	0.9399999998497812	0	43.68765321175428	-10.01085885972325	0	59.42535195813973	1.037168050825998	-4.998835664850549	0	0	43.68765321175428	-10.01085885972325	0	59.42535195813973	1.037168050825998	-4.998835664850549	0	0	3.584782856211008	-3.352806923058966	0.14449714905109	4.782485425940628	-0.5247460338043987	-0.3285401547295281	1.78471082036533	45.00338340888022	0	0	0	-12.1903546147599	0	75.49432899372351	45.00338340888022	0	0
2.63	2.120493447848337	1.601013159048573	-94.65103356068931	0	0.9399999998497812	0	43.68805584259526	-10.01084719683669	0	59.42549009022653	1.037170461685715	-4.99883729659433	0	0	43.68805584259526	-10.01084719683669	0	59.42549009022653	1.037170461685715	-4.99883729659433	0	0	3.573206644927134	-3.358452907506408	0.1456070724345386	4.812327964301278	-1.657004077611642	-0.2660044502607665	1.724193294462828	45.00338053570418	0	0	0	-12.19079551159963	0	75.49417742677151	45.00338053570418	0	0
2.64	2.12103451014936	1.599259553614271	-94.65083004794349	0	0.9399999998497812	0	43.68838336970926	-10.0108377755056	0	59.42560300737696	1.037172432461772	-4.998838612646719	0	0	43.68838336970926	-10.0108377755056	0	59.42560300737696	1.037172432461772	-4.998838612646719	0	0	3.472275829250818	-2.923662354051583	0.4980574417712356	4.898385573795561	-2.120225625843858	-0.5868174585294236	1.723440963444296	45.00337821160505	0	0	0	-12.19115546074393	0	75.49405413161469	45.00337821160505	0	0
2.65	2.126371221714697	1.600028969383151	-94.64687752127379	0	0.9399999998497812	0	43.68869454657521	-10.01082883623914	0	59.4257103524217	1.037174305986238	-4.998839860861445	0	0	43.68869454657521	-10.01082883623914	0	59.4257103524217	1.037174305986238	-4.998839860861445	0	0	3.373591396216289	-2.494819419874096	0.8467883803875547	4.980876469510359	-2.585839527732249	-0.9072746878357557	1.722855995005151	45.00337600575183	0	0	0	-12.19149761693352	0	75.49393699132908	45.00337600575183	0	0
2.66	2.123439340330163	1.595627316684675	-94.65012258829903	0	0.9399999998497812	0	43.68906093069504	-10.01081824103992	0	59.42583603880281	1.037176499627414	-4.998841342060695	0	0	43.68906093069504	-10.01081824103992	0	59.42583603880281	1.037176499627414	-4.998841342060695	0	0	3.368015053515044	-2.492979288041952	0.8510927614499023	5.067325392066715	-2.92598255753763	-0.8821828641978843	2.101340470638911	45.00337339422786	0	0	0	-12.19189890407547	0	75.49379906908023	45.00337339422786	0	0
2.67	2.118103230964294	1.62206379627603	-94.64961135476668	0	0.9399999998497812	0	43.69029599845389	-10.01078272069569	0	59.42626045621036	1.037183907108578	-4.998846298352805	0	0	43.69029599845389	-10.01078272069569	0	59.42626045621036	1.037183907108578	-4.998846298352805	0	0	3.39076364593639	-2.483120554822877	0.851634364812866	4.056960467670257	-3.407488267092058	-0.879718423832011	3.580013496175599	45.00336462677507	0	0	0	-12.19325372369986	0	75.49333413733463	45.00336462677507	0	0
2.68	2.122533537926863	1.597528215478987	-94.65605147101222	0	0.9399999998497812	0	43.71565721732784	-10.01012822983842	0	59.43503616675572	1.037337072151797	-4.998933794532251	0	0	43.71565721732784	-10.01012822983842	0	59.43503616675572	1.037337072151797	-4.998933794532251	0	0	3.376892222458331	-2.489896590062132	0.8546459227882954	4.049848440173773	-3.404305456606351	-0.8756602447114048	3.563928488936884	45.00319805218589	0	0	0	-12.22168098624134	0	75.48378675169292	45.00319805218589	0	0
2.69	2.118741997970802	1.594869371387625	-94.64782654664876	0	0.9399999998497812	0	43.71599236923673	-10.01011916754743	0	59.43515362127809	1.037339122119934	-4.998935034370174	0	0	43.71599236923673	-10.01011916754743	0	59.43515362127809	1.037339122119934	-4.998935034370174	0	0	4.244437081637419	-2.264223028659189	0.9011317354860253	3.233483569245089	-3.855394073587421	-0.8779618842189163	2.823015758309829	45.00319578148343	0	0	0	-12.22205625916607	0	75.4836605834611	45.00319578148343	0	0
2.7	2.44194916251109	2.370779765645777	-94.07689920153885	0	0.9399999998497812	0	43.71629047300538	-10.01011102394681	0	59.43525718835087	1.03734092970635	-4.998936150532519	0	0	43.71629047300538	-10.01011102394681	0	59.43525718835087	1.03734092970635	-4.998936150532519	0	0	5.034357113493573	-2.56149286838918	0.3627098513647922	3.235701209148841	-4.12032063053143	-0.8822609402248569	2.127232277138954	45.00319374448708	0	0	0	-12.22238800865366	0	75.48354836253833	45.00319374448708	0	0
2.71	2.451729983094693	2.357525434658834	-94.06391827445374	0	0.9399999998497812	0	43.71645393577049	-10.01010651380858	0	59.4353134936382	1.037341912419	-4.998936769766303	0	0	43.71645393577049	-10.01010651380858	0	59.4353134936382	1.037341912419	-4.998936769766303	0	0	5.031856670563148	-2.575542873479152	0.344268075756169	3.198874041176223	-4.100709199040351	-0.8802702196687407	1.933069407781874	45.00319261821687	0	0	0	-12.22256882365716	0	75.48348682738394	45.00319261821687	0	0
2.72	2.458299751921493	2.374484524395954	-94.06930569961624	0	0.9399999998497812	0	43.71678310676847	-10.01009749658069	0	59.4354274994248	1.037343902195343	-4.998938005976717	0	0	43.71678310676847	-10.01009749658069	0	59.4354274994248	1.037343902195343	-4.998938005976717	0	0	5.896019939652389	-2.777913525470093	-1.066796380158006	2.485666183644834	-3.828379335619745	0.5681298533187513	1.889611189695922	45.00319036347106	0	0	0	-12.2229343846408	0	75.48336291139941	45.00319036347106	0	0
2.73	2.482901443199358	2.367052129565888	-94.06304944330887	0	0.9399999998497812	0	43.7169282711825	-10.01009351816031	0	59.43547775399	1.03734477930297	-4.998938551427287	0	0	43.7169282711825	-10.01009351816031	0	59.43547775399	1.03734477930297	-4.998938551427287	0	0	5.883709733568942	-2.81305964149659	-1.073970990487736	2.462858084286546	-4.115446034764596	0.5816040520460801	1.976318762198527	45.00318936874171	0	0	0	-12.22309555429327	0	75.48330826445752	45.00318936874171	0	0
2.74	2.464272782854283	2.358870728809935	-94.05762236507975	0	0.9399999998497812	0	43.71722822500136	-10.01008530055642	0	59.43558158582925	1.037346591510433	-4.998939677860531	0	0	43.71722822500136	-10.01008530055642	0	59.43558158582925	1.037346591510433	-4.998939677860531	0	0	6.310906553522095	-2.678939803448315	-1.057801997022515	1.977955852055958	-4.545218224165904	0.603291130355031	2.102658687843159	45.00318731382203	0	0	0	-12.22342857910402	0	75.48319534725077	45.00318731382203	0	0
2.75	2.211489236097752	3.688458240490048	-93.18440611381055	0	0.9399999998497812	0	43.71762198763401	-10.01007474782508	0	59.43572025185596	1.03734901168916	-4.99894111810013	0	0	43.71762198763401	-10.01007474782508	0	59.43572025185596	1.03734901168916	-4.99894111810013	0	0	8.048835971753382	-2.35697958840362	-1.942375301626331	1.504715562896387	-4.553402664363018	0.6137507599618843	2.18110127421172	45.00318466455742	0	0	0	-12.2238712004609	0	75.48304711445847	45.00318466455742	0	0
2.76	2.783042560683767	3.120280196290541	-93.49090529865921	0	0.9399999998497812	0	43.71796052064674	-10.01006568339303	0	59.43583950659052	1.037351093076927	-4.998942354843459	0	0	43.71796052064674	-10.01006568339303	0	59.43583950659052	1.037351093076927	-4.998942354843459	0	0	7.541541935135558	-2.921969113154272	-1.566418911087098	1.444806407615022	-4.542542751358984	0.5735478295676998	2.01073636137785	45.00318238842667	0	0	0	-12.22425186097007	0	75.48291967293369	45.00318238842667	0	0
2.77	2.781114833682091	3.125141327036248	-93.48193365515135	0	0.9399999998497812	0	43.71831945269749	-10.01005587181105	0	59.43596377793791	1.037353262021104	-4.998943698513718	0	0	43.71831945269749	-10.01005587181105	0	59.43596377793791	1.037353262021104	-4.998943698513718	0	0	8.234757742731663	-2.030453580123206	-1.573616536437968	0.8169218302987352	-5.445257991732927	0.6293209068832477	1.959832299947853	45.00317993332393	0	0	0	-12.2246505356866	0	75.48278455336394	45.00317993332393	0	0
2.78	2.787936147552853	3.129615273667586	-93.48740701076466	0	0.9399999998497812	0	43.71872900266516	-10.01004468935647	0	59.43610563257506	1.037355737851582	-4.998945229330076	0	0	43.71872900266516	-10.01004468935647	0	59.43610563257506	1.037355737851582	-4.998945229330076	0	0	8.941144743843942	-1.163851477506893	-1.561484956622039	0.0386982980376564	-6.212296473254513	0.6364223099825208	1.013361383323603	45.00317713439969	0	0	0	-12.22510561028431	0	75.48263037867406	45.00317713439969	0	0
